<?xml version="1.0" standalone="no"?>
<!DOCTYPE svg PUBLIC "-//W3C//DTD SVG 20010904//EN"
 "http://www.w3.org/TR/2001/REC-SVG-20010904/DTD/svg10.dtd">
<svg version="1.0" xmlns="http://www.w3.org/2000/svg"
 width="512.000000pt" height="512.000000pt" viewBox="0 0 512.000000 512.000000"
 preserveAspectRatio="xMidYMid meet">
<metadata>
Created by potrace 1.11, written by Peter Selinger 2001-2013
</metadata>
<g transform="translate(0.000000,512.000000) scale(0.100000,-0.100000)"
fill="#000000" stroke="none">
<path d="M2657 5078 c-77 -98 -159 -247 -395 -718 -87 -173 -180 -362 -207
-420 -26 -58 -76 -163 -111 -235 -68 -143 -153 -323 -189 -400 -82 -178 -105
-227 -129 -281 -25 -56 -31 -62 -64 -68 -114 -19 -270 -56 -396 -96 -100 -31
-263 -95 -280 -111 -31 -28 -33 -8 -31 349 l1 357 41 150 c23 83 51 190 63
240 19 76 29 97 65 137 135 150 147 379 28 535 -94 122 -212 178 -365 171 -74
-3 -96 -9 -160 -40 -154 -77 -239 -214 -239 -388 0 -107 30 -186 107 -276 41
-49 58 -93 94 -244 4 -19 24 -98 44 -174 l36 -139 0 -1149 c0 -910 -3 -1150
-13 -1153 -153 -53 -209 -98 -246 -200 -26 -69 -31 -192 -11 -266 21 -76 21
-90 3 -137 -14 -38 -17 -82 -17 -281 l-1 -236 2201 -3 c2091 -2 2202 -1 2206
15 2 10 3 86 2 170 -2 200 -10 262 -45 367 -100 296 -348 509 -664 571 -16 3
-75 8 -129 10 -54 3 -101 6 -102 8 -2 2 0 17 5 34 12 42 11 189 -1 224 -9 25
-6 32 20 58 39 39 57 107 57 218 0 92 0 93 27 102 32 11 69 78 92 166 17 65
22 70 80 79 227 36 524 130 643 204 137 84 173 142 150 235 -27 110 -168 230
-369 315 -171 71 -340 125 -483 152 -33 6 -71 13 -85 16 -14 3 -39 9 -56 15
-34 10 -23 -10 -197 369 -52 113 -127 273 -166 355 -40 83 -102 213 -139 290
-118 247 -396 797 -462 910 -93 162 -146 235 -171 235 -4 0 -23 -19 -42 -42z
m-1725 -2942 c61 -23 251 -75 333 -92 22 -4 42 -8 45 -9 9 -2 69 -15 99 -21
26 -4 30 -11 41 -63 16 -77 50 -142 86 -166 29 -19 30 -22 32 -105 1 -47 3
-92 6 -100 2 -8 7 -30 11 -48 4 -19 22 -48 39 -67 30 -31 31 -34 21 -81 -12
-54 -12 -135 -1 -201 6 -37 5 -43 -11 -44 -221 -8 -315 -28 -455 -98 l-96 -48
-32 34 c-36 37 -92 69 -154 87 l-41 12 -1 517 c0 284 3 517 7 517 3 0 35 -11
71 -24z"/>
</g>
</svg>
